<svg width="30" height="31" viewBox="0 0 30 31" fill="none" xmlns="http://www.w3.org/2000/svg">
<path d="M26.6665 3.83335V21.3334H9.1665V3.83335H26.6665ZM26.6665 0.916687H9.1665C7.56234 0.916687 6.24984 2.22919 6.24984 3.83335V21.3334C6.24984 22.9375 7.56234 24.25 9.1665 24.25H26.6665C28.2707 24.25 29.5832 22.9375 29.5832 21.3334V3.83335C29.5832 2.22919 28.2707 0.916687 26.6665 0.916687ZM15.6853 18.4167L10.6248 13.3125L12.6665 11.2563L15.6853 14.2896L23.1665 6.75002L25.2082 8.80627L15.6853 18.4167ZM3.33317 6.75002H0.416504V27.1667C0.416504 28.7709 1.729 30.0834 3.33317 30.0834H23.7498V27.1667H3.33317V6.75002Z" fill="#4F8FF0"/>
</svg>
